<svg version="1.1" xmlns="http://www.w3.org/2000/svg" xmlns:xlink="http://www.w3.org/1999/xlink" width="449.28239" height="248.51064" viewBox="0,0,449.28239,248.51064"><g transform="translate(-3.97289,-6.56756)"><g fill="#b668ff" stroke="none" stroke-width="0.5" stroke-miterlimit="10"><path d="M27.83536,7.32541c2.08012,1.38675 0.69337,3.46688 0.69337,3.46688l-0.44938,0.63927c-2.12361,4.23872 -4.50558,8.41533 -6.92267,12.49565c-0.88655,1.49658 -1.47194,3.22002 -2.66296,4.48777c-0.05001,0.05324 -0.10085,0.10554 -0.15243,0.15695l0.01758,0.01506l-1.80541,2.10631c-0.45858,0.54156 -1.1435,0.88536 -1.90872,0.88536c-1.21151,0 -2.22174,-0.86176 -2.45115,-2.00574l-0.55365,-2.49142c-2.56687,-5.70165 -5.43771,-11.2597 -7.52459,-17.14657c0,0 -0.83204,-2.35747 1.52543,-3.18952c2.35748,-0.83205 3.18953,1.52543 3.18953,1.52543c1.84652,5.25679 4.37726,10.24205 6.69482,15.3206c0.40736,-0.77911 0.93753,-1.54711 1.32693,-2.20786c2.34862,-3.98524 4.69077,-8.05033 6.75517,-12.18806l0.76127,-1.17671c0,0 1.38675,-2.08012 3.46688,-0.69337z"/><path d="M35.19375,21.98072c-1.61429,0.13658 -3.07907,0.51633 -3.24609,2.62566c-0.06624,0.83662 0.07281,5.38472 1.95011,5.30844c0.5329,-0.02165 0.90382,-0.5804 1.40174,-0.77153c3.42921,-1.31633 3.11683,-2.10991 1.50349,-5.60191l-1.52893,-1.4722c0,0 -0.03084,-0.03085 -0.08031,-0.08846zM38.80283,18.52704c0.00449,0.00433 0.00677,0.00661 0.00677,0.00661l2.10303,2.15976c1.36656,3.03517 2.97445,5.01264 1.83924,8.54287c-1.66723,5.18474 -9.89926,7.21795 -13.63935,3.31077c-2.87762,-3.00617 -2.98131,-9.8877 -0.30266,-12.99005c2.18808,-2.53418 4.51313,-2.32246 7.37789,-2.65116c0,0 2.05228,-0.20523 2.61508,1.6212z"/><path d="M48.87229,6.61816c2.48471,-0.27608 2.76078,2.20863 2.76078,2.20863l0.31413,2.8618c0.00964,7.20911 0.00383,14.41825 0.00383,21.62736c0,0 0,2.5 -2.5,2.5c-2.5,0 -2.5,-2.5 -2.5,-2.5c0,-7.11694 -0.00671,-14.23392 0.00382,-21.35085l-0.2912,-2.58614c0,0 -0.27608,-2.48471 2.20863,-2.76079z"/><path d="M70.03315,14.2441c2.42535,0.60634 1.81902,3.03169 1.81902,3.03169l-0.44349,1.61966c-1.65105,3.71275 -4.25403,12.8282 -9.34092,12.95401c-1.76091,0.04355 -2.26192,-2.72473 -3.13127,-4.2567c-0.80323,-1.41546 -1.7814,-5.3605 -2.21215,-6.93622c0,0 -0.65779,-2.41191 1.75412,-3.06971c2.41191,-0.6578 3.0697,1.75412 3.0697,1.75412c0.43751,1.60825 1.2267,3.1351 1.69115,4.73008c0.87719,-2.5506 2.83489,-5.48308 3.6003,-7.20628l0.16183,-0.80165c0,0 0.60634,-2.42536 3.03169,-1.81902z"/><path d="M90.38929,29.98665c0,2.5 -2.5,2.5 -2.5,2.5l-1.3959,-0.12829c-3.16437,-1.07753 -7.47875,-0.57061 -10.07621,-3.04456c-0.95189,-0.90662 -1.24641,-2.34533 -1.56034,-3.62185c-1.17883,-4.79349 -0.63728,-12.11818 5.10118,-13.55041c1.74173,-0.43471 3.65904,-0.78475 5.37871,-0.26965c3.61629,1.0832 5.58142,6.23607 4.62031,9.52664c-1.1902,4.07486 -6.55738,5.1476 -9.84438,3.86295c-0.26114,-0.10206 -0.49027,-0.24912 -0.69714,-0.42751c0.09154,0.38435 0.26633,0.72293 0.57541,0.98294c1.57767,1.32723 6.05639,1.13418 8.0836,1.79805l-0.18524,-0.12829c0,0 2.5,0 2.5,2.5zM79.88133,18.09853c0.93913,0.21323 1.53338,1.00555 1.53338,1.00555c0.31134,0.56174 0.38793,1.34718 0.93402,1.68524c2.77148,1.71575 4.08458,-3.86334 1.43452,-4.1649c-0.83231,-0.09471 -1.67074,0.16352 -2.49054,0.33568c-0.41688,0.08755 -0.94275,0.09985 -1.2,0.43937c-0.07483,0.09876 -0.14597,0.35697 -0.21137,0.69907z"/><path d="M106.10848,17.58487c-0.31009,2.48069 -2.79078,2.17061 -2.79078,2.17061l-1.23341,-0.44254c-0.57217,0.16748 -1.22725,0.16177 -1.7165,0.50245c-0.64434,0.44867 -0.8157,1.05177 -0.79159,1.71361c0.21744,1.23683 0.47409,2.48395 0.76716,3.81056l-0.03986,0.14021l0.05838,-0.00649l0.29865,2.68787c0.01274,0.10227 0.0193,0.20646 0.0193,0.31218c0,1.38071 -1.11929,2.5 -2.5,2.5c-1.09231,0 -2.02101,-0.70054 -2.36132,-1.67684l-0.8875,-2.36666l0.1058,-0.03967c-0.07927,-0.12769 -0.1544,-0.25826 -0.22486,-0.39207c-0.49234,-0.93506 -0.04883,-2.11331 -0.04012,-3.17003c0.00072,-0.08675 0.00175,-0.17258 0.00312,-0.2575c-0.433,-2.33388 -0.73197,-4.59729 -0.90557,-7.14279c0,0 -0.1663,-2.49446 2.32817,-2.66076c1.99675,-0.13312 2.50171,1.43867 2.62373,2.0712c0.45296,-0.24045 0.95388,-0.47434 1.50738,-0.7069l3.6092,0.16279c0,0 2.48069,0.31009 2.17061,2.79078z"/><path d="M125.83432,128.20969c1.38836,2.07905 -0.69069,3.46741 -0.69069,3.46741l-2.90457,1.93489c-4.19667,3.54823 -8.47955,6.89825 -12.86931,10.05504c4.9709,3.84753 8.90659,8.21185 8.86678,15.23648c-0.98263,3.93054 -0.98127,6.65962 -0.98127,10.69454v4c0,1.38071 -1.11929,2.5 -2.5,2.5c-0.57191,0 -1.09897,-0.19204 -1.5202,-0.51515l-3.9798,-2.98485c0,0 -2,-1.5 -0.5,-3.5c1.5,-2 3.5,-0.5 3.5,-0.5l0.00082,0.00062c0.00814,-3.65361 0.09554,-6.61661 1.01791,-10.30607c-0.02401,-3.45349 -3.12961,-7.47905 -7.79207,-11.89956c-9.17428,6.26966 -18.82759,11.72577 -29.14032,16.41192c-7.20039,3.27189 -14.74916,6.67511 -22.63621,7.21869c-0.48929,13.49537 -0.45013,27.02526 -0.45013,40.57441c0,0 0,2.5 -2.5,2.5c-2.5,0 -2.5,-2.5 -2.5,-2.5c0,-28.92592 -0.1326,-57.75084 4.90697,-86.35838c1.75314,-9.93448 4.03195,-19.84602 7.22132,-29.43219l0.98177,-2.94531c0.31417,-1.02156 1.26534,-1.76412 2.38994,-1.76412c1.21151,0 2.22174,0.86176 2.45115,2.00574l1.07397,4.83287l-0.90522,0.20116c1.23374,4.34574 2.36335,8.94002 4.48004,12.10366c5.85258,8.74739 18.76517,18.59748 26.70005,25.62747c2.34206,2.07497 4.9628,3.89131 7.53106,5.69043c4.83306,-3.41174 9.53675,-7.0576 14.14708,-10.94312l3.13351,-2.09725c0,0 2.07905,-1.38836 3.46741,0.69069zM74.2726,158.25312c9.68143,-4.40207 18.73766,-9.4968 27.36572,-15.31452c-13.84727,-11.91709 -35.49989,-26.17145 -38.62487,-39.70435c-2.0492,7.19213 -3.63127,14.53026 -4.92729,21.87435c-2.34404,13.25889 -3.55209,26.56819 -4.17407,39.91312c7.03441,-0.54389 13.97547,-3.86538 20.3605,-6.7686z"/><path d="M106.25527,209.59805c2,1.5 0.5,3.5 0.5,3.5l-2.87337,3.81433c-0.5645,1.08668 -1.30837,2.09764 -1.6935,3.26005c-1.30989,3.95349 5.45444,9.24113 7.55415,11.57981c2.16343,2.40966 4.05417,5.0925 6.47817,7.23986c2.42697,2.14999 5.32918,3.69478 7.97795,5.56471c2.88049,2.03352 5.89249,5.52628 9.7006,5.52225c4.58651,-0.00485 6.57031,-2.42638 8.38387,-6.12692c2.04146,-4.16556 4.7103,-8.62524 6.07785,-13.07341c0.90457,-2.94225 0.9944,-6.07548 1.50144,-9.11159c4.75787,-28.48991 5.39284,-56.26632 5.39284,-85.1691c0,0 0,-2.5 2.5,-2.5c2.5,0 2.5,2.5 2.5,2.5c0,29.17635 -0.65752,57.22879 -5.46114,85.9927c-0.01908,0.11423 -1.58496,9.53216 -1.64457,9.72661c-1.43668,4.68637 -4.17643,9.51081 -6.39428,13.87086c-2.74564,5.39762 -6.37373,8.89434 -12.9498,8.88997c-5.14045,-0.00341 -8.61802,-3.70293 -12.49359,-6.43891c-0.31225,-0.22043 -8.25516,-5.7703 -8.40669,-5.90453c-3.70118,-3.27879 -6.92576,-7.67216 -10.22349,-11.36268c-2.51504,-2.8146 -4.32668,-4.27968 -5.35955,-8.19963c-1.00951,-3.83129 0.67756,-5.54118 2.3065,-8.88871l3.12663,-4.18567c0,0 1.5,-2 3.5,-0.5z"/><path d="M151.25527,122.59805c0,-1.38071 1.11929,-2.5 2.5,-2.5c1.38071,0 2.5,1.11929 2.5,2.5c0,1.38071 -1.11929,2.5 -2.5,2.5c-1.38071,0 -2.5,-1.11929 -2.5,-2.5z"/><path d="M196.75306,118.09805c2.5,-0.00221 2.50221,2.49779 2.50221,2.49779l0.00058,1.01528c0.20428,12.1246 3.2144,23.74038 3.9394,35.75881c0.01496,0.24807 -0.28909,10.13359 -0.29725,10.40378c-1.5494,8.25927 -14.97775,28.30111 -26.45706,21.95098c-9.60729,-5.31457 -1.22981,-45.22963 0.88897,-53.73297c0,0 0.60634,-2.42536 3.0317,-1.81902c2.42536,0.60634 1.81902,3.0317 1.81902,3.0317c-1.52299,6.0705 -8.963,44.93795 -3.11103,48.26703c6.10649,3.47388 18.01263,-13.21069 18.85498,-18.21253c0.08766,-3.19612 0.47227,-6.39637 0.27975,-9.5879c-0.25563,-4.23765 -1.35821,-8.51873 -1.92568,-12.73188c-1.04741,-7.77645 -1.88915,-15.38866 -2.02209,-23.24359l-0.00129,-1.09527c0,0 -0.00221,-2.5 2.49779,-2.50221z"/><path d="M277.07646,131.52653c-0.92848,2.32119 -3.24967,1.39272 -3.24967,1.39272l-0.35762,-0.14305c-3.53751,-1.45605 -7.2534,-2.57593 -11.15439,-1.74156c-4.78699,1.02388 -10.3451,4.34095 -14.98004,6.15225c-3.71821,1.45305 -5.00979,1.75128 -8.34978,3.80068c-0.79744,0.4893 -2.49382,0.78911 -2.24101,1.68989c0.30947,1.10268 2.19352,0.76614 3.11948,1.44016c1.35527,0.98652 2.42282,2.31729 3.63423,3.47594c5.74697,4.60783 23.78838,13.71284 22.26141,22.84193c-1.28824,7.70182 -32.80886,20.82719 -39.72827,18.5553c-2.7489,-0.90256 -5.1065,-3.69863 -7.04331,-5.62496c0,0 -1.76777,-1.76777 0,-3.53553c1.76777,-1.76777 3.53553,0 3.53553,0c0.65939,0.66342 3.56848,3.89946 4.95669,4.37504c4.13005,1.41489 32.79445,-10.84541 33.34311,-14.56576c0.77029,-5.22329 -16.95597,-15.35959 -20.61865,-18.28396c-1.19682,-1.14603 -2.39349,-2.29222 -3.59047,-3.43808c-1.61041,-1.54163 -4.65718,-2.40187 -4.83171,-4.62439c-0.34812,-4.43316 5.9985,-7.48579 8.92978,-8.87819c4.20634,-1.99808 8.79055,-3.42586 13.12367,-5.14153c2.47664,-0.98061 4.75502,-2.55707 7.36029,-3.11194c4.9391,-1.05194 9.60822,0.20658 14.13038,1.97234l0.35762,0.14305c0,0 2.32119,0.92848 1.39272,3.24967z"/><path d="M342.75527,60.09805c-2.5,0 -2.5,-2.5 -2.5,-2.5l0.73223,-0.23223c-0.39631,-0.48602 -0.57946,-1.31039 -1.18894,-1.45807c-1.31131,-0.31773 -2.69433,0.16197 -4.04329,0.1903c-2.37707,0.04992 -6.62551,-0.01975 -9.12242,-0.0522c-4.70896,-0.06121 -9.55968,-0.24028 -14.41295,-0.65334c-0.48746,15.06415 0.03663,30.237 0.03473,45.2723c-0.00385,30.43952 -2.03101,59.32952 -7.03338,89.34424c0,0 -0.411,2.46598 -2.87698,2.05499c-2.46598,-0.411 -2.05499,-2.87698 -2.05499,-2.87698c4.95759,-29.74502 6.96153,-58.35556 6.96534,-88.52287c0.00192,-15.20847 -0.51722,-30.54908 -0.01346,-45.78269c-6.26872,-0.76028 -12.46177,-1.98001 -18.27647,-3.91173c0,0 -2.37171,-0.79057 -1.58114,-3.16228c0.79057,-2.37171 3.16228,-1.58114 3.16228,-1.58114c5.3662,1.79526 11.09366,2.93815 16.89942,3.65956c0.18898,-3.85211 0.45443,-7.69567 0.82145,-11.52681l-0.27921,1.00672c0,0 -1.76777,-1.76777 0,-3.53553c1.76777,-1.76777 3.53553,0 3.53553,0l1.72079,3.00672c-0.36997,3.8443 -0.63569,7.70178 -0.82331,11.56823c4.81335,0.41297 9.62513,0.58326 14.27589,0.64101c4.37484,0.05432 10.90286,-1.03951 15.01558,0.2421c1.2061,0.37585 1.87404,1.69462 2.81106,2.54193l0.73223,3.76777c0,0 0,2.5 -2.5,2.5z"/><path d="M379.25527,168.59805c0,2.5 -2.5,2.5 -2.5,2.5l-2.69284,-0.01894c-3.00016,0.75621 -6.12585,0.94386 -9.21539,1.11005c-4.96985,0.26733 -10.70374,1.8534 -15.65666,0.84424c-1.47121,-0.29976 -2.72802,-1.25615 -4.07244,-1.92463c-1.72299,-0.8567 -3.75816,-1.29921 -5.12837,-2.65019c-2.58238,-2.54613 -3.43525,-7.08751 -4.33063,-10.37892c-1.07421,-3.94878 -2.0261,-5.8058 -1.36825,-9.90102c1.52012,-9.46298 8.11634,-17.73379 14.18379,-24.68024c4.74023,-2.43862 9.54186,-5.59891 14.93403,-6.37619c33.8395,-4.87799 3.08066,55.88115 -18.65325,26.97584c0,0 -1.5,-2 0.5,-3.5c2,-1.5 3.5,0.5 3.5,0.5c16.47286,22.02359 39.92471,-29.25901 11.10175,-17.79765c-2.87267,1.14231 -5.52491,2.77582 -8.3012,4.1357c-5.19052,6.18389 -10.882,13.34154 -12.33597,21.58135c-0.51416,2.91382 0.49052,4.92255 1.26293,7.74662c0.44468,1.62584 1.47083,6.67325 2.98573,8.10325c1.02543,0.96796 2.57975,1.14079 3.85054,1.75198c5.61803,2.70205 11.17945,0.89701 17.26232,0.57691c2.97328,-0.15646 5.97884,-0.35475 8.86675,-1.07923l3.30716,-0.01894c0,0 2.5,0 2.5,2.5z"/><path d="M453.25527,111.59805c0,2.5 -2.5,2.5 -2.5,2.5l-0.32907,-0.09171c-11.07588,3.08564 -22.03682,5.87456 -33.41071,7.58065c-4.32136,0.6482 -8.64185,1.40996 -12.98874,1.87158c-0.79196,0.0841 -1.58334,0.20764 -2.37619,0.29255c2.74781,1.24438 5.57427,4.73377 7.41236,6.11228c6.49366,4.87006 13.0019,9.58072 19.34975,14.659c3.34637,2.6771 25.29076,20.5966 24.80573,23.50346c-0.28387,1.70128 -2.61842,2.28499 -4.12671,3.12166c-3.39642,1.88407 -38.52425,10.901 -42.33642,10.95052c0,0 -2.5,0 -2.5,-2.5c0,-2.5 2.5,-2.5 2.5,-2.5c3.05992,0.05462 30.98885,-7.38582 35.98915,-8.83819c0.7886,-0.22905 1.92404,-0.8227 2.96272,-1.264c-1.60343,-1.47572 -3.62525,-3.90663 -5.07335,-5.63846c-4.19936,-5.02215 -10.22476,-8.83478 -15.34461,-12.93066c-7.61282,-6.09025 -15.59971,-11.6501 -23.19056,-17.74282c-0.68063,-0.5463 -7.77359,-6.08252 -7.83123,-6.83986c-0.45927,-6.03464 8.83452,-5.25724 12.14737,-5.72272c14.54962,-2.04433 28.51582,-4.98847 42.66957,-8.93158l1.67093,-0.09171c0,0 2.5,0 2.5,2.5z"/></g></g></svg>