<svg version="1.1" xmlns="http://www.w3.org/2000/svg" xmlns:xlink="http://www.w3.org/1999/xlink" width="593.53358" height="360" viewBox="0,0,593.53358,360"><g transform="translate(-22.044,0)"><g stroke="none" stroke-miterlimit="10"><path d="M160,360v-360h320v360z" fill="#4f405d" stroke-width="0"/><path d="M202.24501,89.70072c2.46859,11.36032 5.12283,23.08772 5.79654,24.87282c0,0 0.87781,2.34082 -1.46302,3.21863c-2.34082,0.87781 -3.21863,-1.46301 -3.21863,-1.46301c-2.02488,-5.43121 -12.17365,-47.76508 -10.41522,-51.21723c4.98773,-9.79189 23.31837,-12.62761 28.38133,-2.7986c2.26442,7.92749 2.50935,18.03484 -5.15534,23.36205c-2.95208,2.05179 -6.32589,2.97671 -9.65788,4.12521l-3.18623,0.13556c0,0 -0.51747,0 -1.08155,-0.23542zM201.3935,85.76284c0.73757,-0.8267 1.93306,-0.8267 1.93306,-0.8267l1.5621,0.13557c2.8689,-0.98152 5.81277,-1.77887 8.38581,-3.47212c5.68244,-3.73947 4.98416,-11.90182 3.39167,-17.47366c-2.93687,-6.17388 -16.07703,-2.07864 -19.10206,2.89941c-0.0906,0.14909 1.69577,8.82169 3.82942,18.7375z" fill="#be79ff" stroke-width="0.5"/><path d="M246.87317,48.33141c0.79292,1.58584 -0.1012,2.60933 -0.68825,3.07048c-0.052,15.13064 -0.9236,29.68375 -3.84096,44.57761c-0.86555,4.41886 -1.38331,8.50363 -2.96338,12.75231c0,0 -0.8778,2.34083 -3.21863,1.46302c-2.34082,-0.87781 -1.46302,-3.21864 -1.46302,-3.21864c1.50245,-3.96945 1.92432,-7.79985 2.73463,-11.93905c2.94941,-15.06601 3.75387,-29.76704 3.75387,-45.11287l2.33163,-2.7109c0,0 2.23607,-1.11803 3.35411,1.11803z" fill="#be79ff" stroke-width="0.5"/><path d="M276.79423,114.84494c-1.76776,1.76776 -3.53553,0 -3.53553,0l-1.41796,-1.5994c-1.86744,-3.76439 -2.80771,-7.31014 -3.17821,-11.37949c-0.40138,0.75014 -0.73406,1.33432 -0.91179,1.56583c-4.12473,5.37268 -13.72979,9.49886 -19.31245,3.14377c-1.39512,-1.58815 -1.92457,-3.80058 -2.4574,-5.84622c-0.56902,-2.18455 0.24757,-5.66527 1.09486,-7.60232c4.04585,-9.24949 16.69523,-15.57093 25.91312,-10.20887c0,0 2.14374,1.28624 0.8575,3.42997c-1.28624,2.14373 -3.42997,0.8575 -3.42997,0.8575c-6.87446,-4.30492 -21.58788,3.45205 -19.52573,12.57818c0.26896,1.1903 0.48382,2.49403 1.25651,3.43854c3.1953,3.90588 9.53513,0.05331 11.58507,-2.76573c0.33518,-0.46093 2.77104,-5.35742 3.29005,-6.39342l1.36936,-3.65163c0.34031,-0.9763 1.269,-1.67683 2.36131,-1.67683c1.38071,0 2.5,1.11929 2.5,2.5v4.20146c1.16325,5.70534 0.33276,10.16806 3.05991,15.57319l0.48136,0.29993c0,0 1.76776,1.76777 0,3.53554z" fill="#be79ff" stroke-width="0.5"/><path d="M301.79795,111.21559c1.38675,2.08012 -0.69338,3.46688 -0.69338,3.46688l-2.81126,1.36954c-1.99498,-0.00359 -6.42385,0.21467 -8.06741,-0.91708c-4.06134,-2.79664 -3.54239,-9.74545 -2.95346,-13.81438c0.34668,-2.39527 1.62847,-4.56027 2.55056,-6.79796c0.64548,-1.56642 0.73938,-3.3381 1.47725,-4.86317c2.29672,-4.74695 6.47891,-8.03096 12.03864,-7.55453c1.79815,0.15408 3.32773,1.39804 4.9916,2.09707c0,0 2.28453,1.01534 1.26918,3.29988c-1.01535,2.28453 -3.29988,1.26919 -3.29988,1.26919c-1.18514,-0.5672 -2.25551,-1.51051 -3.55541,-1.7016c-5.75462,-0.84593 -6.81531,5.75178 -8.32646,9.42465c-0.75682,1.83946 -1.92126,3.57797 -2.19777,5.54772c-0.34866,2.48372 -0.26349,5.0744 0.30068,7.5182c0.1168,0.50593 0.09355,1.20211 0.54453,1.45944c1.51361,0.86366 3.48526,0.03607 5.22794,0.03259l0.03775,-0.52979c0,0 2.08013,-1.38675 3.46688,0.69338z" fill="#be79ff" stroke-width="0.5"/><path d="M331.65752,119.72484c0,2.5 -2.5,2.5 -2.5,2.5h-1.42451c-1.14113,-0.02229 -2.3331,0.2707 -3.42338,-0.06687c-6.91762,-2.14185 -7.89024,-6.97946 -8.57325,-13.36804c0.18057,-1.59865 0.79393,-3.57859 1.71963,-5.6883c-0.09919,-0.32068 -0.18649,-0.65703 -0.26116,-1.00947c0,0 -0.41099,-2.46599 2.05499,-2.87699c0.06881,-0.01147 0.13601,-0.0207 0.20166,-0.0278c5.68162,-9.81055 16.23773,-19.16719 20.61209,-4.9814c2.57326,8.34494 -11.82591,17.45088 -19.13211,13.41387c-0.09356,0.46038 -0.15901,0.86479 -0.19517,1.19756c0.45403,5.01955 1.32614,8.57416 6.99671,8.40744h1.42451c0,0 2.5,0 2.5,2.5zM322.44661,102.52994c2.55741,5.24657 18.55311,-6.05371 10.50253,-9.46025c-4.73771,-2.00472 -8.45792,4.07133 -10.50253,9.46025z" fill="#be79ff" stroke-width="0.5"/><path d="M305.8752,197.20004c-2.45145,-0.49029 -1.96116,-2.94175 -1.96116,-2.94175l0.44559,-2.19396c0.75366,-5.9655 1.40902,-13.71242 -1.13532,-19.37957c-0.33797,-0.75278 -1.17296,-1.16506 -1.81489,-1.68357c-3.1408,-2.53696 -6.84683,-4.93661 -11.11663,-4.67726c-0.45811,0.02783 -0.86198,0.39775 -1.15289,0.75273c-1.35814,1.65727 -2.56927,3.4468 -4.04989,4.99358c0.00961,0.12727 0.01885,0.25459 0.02773,0.38196c0.45774,6.56536 0.00606,13.33856 0.00606,19.92222c0,0 0,2.5 -2.5,2.5c-2.5,0 -2.5,-2.5 -2.5,-2.5c0,-6.4672 0.45567,-13.12559 0.00606,-19.57446c-0.79728,-11.4355 -4.54048,-22.49058 -5.69166,-33.833l-0.01241,-0.7236c0,0 0,-2.5 2.5,-2.5c2.5,0 2.5,2.5 2.5,2.5l-0.01241,0.22608c0.88245,8.96953 3.41471,17.75788 4.8429,26.69774c1.39377,-1.75127 2.95163,-3.38417 4.94353,-3.72233c1.94199,-0.32969 3.97049,0.0409 5.8893,0.48608c4.0312,0.93529 10.54429,4.36647 12.51822,8.34778c3.21344,6.4813 2.57022,15.48534 1.71368,22.4058l-0.50408,2.55437c0,0 -0.49029,2.45145 -2.94174,1.96116z" fill="#be79ff" stroke-width="0.5"/><path d="M333.75889,173.29815c-32.65588,-4.58736 -10.24583,42.28449 -0.79412,16.84306c1.46461,-4.9934 1.32718,-11.24687 0.79412,-16.84306zM338.79903,173.77331c0.48264,6.03036 0.43763,12.48218 -1.10309,17.9853c-1.86577,4.46892 -5.80036,8.62035 -10.79467,9.69218c-20.07117,4.30747 -18.74948,-30.44666 -1.67764,-33.46143c3.32481,-0.58714 5.3789,-0.53318 7.5972,-0.14741c0.04597,-0.65951 0.36601,-1.40739 1.39148,-1.92013c2.23607,-1.11803 3.3541,1.11803 3.3541,1.11803l0.71946,1.75762c0.0108,0.08728 0.02155,0.17474 0.03222,0.26239c0.39826,0.11271 2.31355,0.77419 1.82689,2.96419c-0.22508,1.01288 -0.77713,1.51196 -1.34596,1.74926z" fill="#be79ff" stroke-width="0.5"/><path d="M351.8857,130.55421c2.46598,0.411 2.05498,2.87698 2.05498,2.87698l-0.4627,2.76806c-0.72486,7.22043 -0.45295,14.48167 -0.45295,21.73548c0,11.32162 0,22.64324 0,33.96486c0,0 0,2.5 -2.5,2.5c-2.5,0 -2.5,-2.5 -2.5,-2.5c0,-18.6164 -1.34928,-37.83421 0.49671,-56.36044l0.48696,-2.92994c0,0 0.411,-2.46598 2.87698,-2.05499z" fill="#be79ff" stroke-width="0.5"/><path d="M374.74156,99.65599c2.5,0 2.5,2.5 2.5,2.5l-0.00009,0.92936c0.05367,10.71935 3.93717,21.39825 4.7415,32.12307c0.49655,6.62084 0.00789,13.48775 0.00692,20.1294c-0.00113,7.73013 0.99254,16.29849 -0.1173,23.94038c-0.03265,0.22484 -2.74055,9.52533 -2.86128,9.94118c-1.99716,6.82206 -1.9984,8.88435 -9.74325,9.91844c-22.25792,2.97185 -17.21266,-32.57221 8.11718,-31.20518c-0.10156,-4.25894 -0.39594,-8.55207 -0.39535,-12.59569c0.00095,-6.51656 0.4943,-13.26091 0.00693,-19.75664c-0.81491,-10.86116 -4.63709,-21.58724 -4.75518,-32.45432l-0.00008,-0.96998c0,0 0,-2.5 2.5,-2.5zM377.38595,172.92342c-32.10033,-3.05504 -10.1368,39.0993 -3.17636,14.90191c0.89733,-3.09081 2.25236,-6.08072 2.71492,-9.26574c0.26576,-1.82996 0.40395,-3.71777 0.46144,-5.63617z" fill="#be79ff" stroke-width="0.5"/><path d="M413.15012,197.61878c0.92847,2.32119 -1.39272,3.24967 -1.39272,3.24967l-2.64323,1.03994c-1.18003,0.18534 -2.36007,0.37068 -3.5401,0.55602c-26.79496,-0.02878 -22.62058,-30.92061 -4.43738,-31.57569c13.84341,-0.49873 6.06572,20.46252 -9.92255,16.56954c-1.14954,5.1505 1.62122,10.03673 13.97694,10.02084c0.86809,-0.13121 1.73617,-0.26243 2.60425,-0.39364l2.10511,-0.8594c0,0 2.3212,-0.92847 3.24967,1.39272zM393.22112,182.76817c5.60739,0.67552 13.61805,-4.35131 9.55316,-6.84579c-2.01585,-1.23705 -6.73224,2.29919 -9.55316,6.84579z" fill="#be79ff" stroke-width="0.5"/><path d="M456.05935,182.55494c-0.15203,2.49537 -2.6474,2.34334 -2.6474,2.34334l-2.60471,-0.16067c-5.91185,-0.83424 -11.68067,-2.24441 -17.57186,-3.18845c-2.6384,-0.4228 -6.75372,-1.54699 -9.43722,-0.69914c-1.96402,0.62053 -1.70301,6.53908 -1.97605,7.76692c-0.01977,0.08888 -0.04068,0.17745 -0.06262,0.26576c-0.08327,4.2926 -0.44406,8.56599 -1.02958,12.9562l-0.2833,3.98754c-0.08087,1.30773 -1.16708,2.34332 -2.49517,2.34332c-1.31881,0 -2.39911,-1.02117 -2.49333,-2.31595l-0.41326,-4.95917l0.02826,-0.00235c-0.01259,-0.05571 -0.02479,-0.11155 -0.03661,-0.1675c-0.83856,-3.97093 0.80559,-8.61487 1.73329,-12.45188c0.04471,-3.11194 -0.06575,-6.23913 -0.35842,-9.44234c0,0 -0.22634,-2.48974 2.2634,-2.71608c1.01499,-0.09227 1.65382,0.26686 2.0545,0.72468c0.26674,-0.17446 0.55668,-0.33521 0.87214,-0.48073c2.95891,-1.36501 5.61423,-0.61656 8.55272,-0.23209c7.11066,0.93035 14.05965,2.6341 21.15506,3.63651l2.40684,0.14467c0,0 2.49537,0.15203 2.34334,2.6474z" fill="#be79ff" stroke-width="0.5"/><path d="M293.928,285.28779c-0.411,-2.46598 2.05499,-2.87698 2.05499,-2.87698l3.0538,-0.50034c3.17059,0.01544 5.81588,-0.49201 8.64304,1.31453c6.05987,3.87221 6.06811,12.96704 5.93401,19.22065c-0.03804,1.77395 0.5822,3.73993 -0.22872,5.31814c-0.94038,1.83018 -2.74793,3.23172 -4.61203,4.10296c-3.69608,1.72746 -12.40814,1.20445 -16.01004,-0.61229c-0.48798,-0.24613 -1.28107,-1.08336 -2.12891,-2.11829c-0.05033,0.08965 -0.10276,0.18121 -0.15736,0.27483c-5.67523,9.72993 -22.80597,10.36879 -28.96875,1.00341c-5.2403,-7.96351 -2.48125,-21.45782 7.98982,-22.79571c4.44887,-0.56844 5.44951,0.02214 9.4588,1.00558c0,0 2.42535,0.60634 1.81901,3.03169c-0.60634,2.42536 -3.03169,1.81902 -3.03169,1.81902c-2.85482,-0.72947 -7.63763,-2.12498 -10.43588,-0.29206c-4.73615,3.1023 -4.34767,14.18586 0.53476,17.13871c5.5241,3.34093 14.86167,2.13322 18.32401,-3.44533c0.91498,-1.47422 0.73708,-2.37347 0.64161,-3.95583h-0.03699v-3.79868c0,-1.38071 1.11929,-2.5 2.5,-2.5c1.38071,0 2.5,1.11929 2.5,2.5v2.72787c0.6932,1.25611 1.45615,2.46935 2.32163,3.60792c2.11203,2.77849 5.5969,2.20142 8.82402,2.0885c1.38266,-0.04838 5.09951,0.33335 5.92542,-1.87158c0.37848,-1.01042 -0.19877,-2.15029 -0.22871,-3.22886c-0.0449,-1.6171 0.08501,-3.23747 0.00432,-4.85319c-0.15083,-3.02002 -0.62941,-8.25993 -3.56698,-10.1142c-1.56086,-0.98525 -4.04323,-0.59492 -5.60198,-0.58481l-2.6442,0.44934c0,0 -2.46599,0.41099 -2.87698,-2.05499z" fill="#be79ff" stroke-width="0.5"/><path d="M272.05163,303.39531c0,-1.38071 1.11929,-2.5 2.5,-2.5c1.38071,0 2.5,1.11929 2.5,2.5c0,1.38071 -1.11929,2.5 -2.5,2.5c-1.38071,0 -2.5,-1.11929 -2.5,-2.5z" fill="#be79ff" stroke-width="0.5"/><path d="M299.59199,297.22247c0,-1.38071 1.11929,-2.5 2.5,-2.5c1.38071,0 2.5,1.11929 2.5,2.5c0,1.38071 -1.11929,2.5 -2.5,2.5c-1.38071,0 -2.5,-1.11929 -2.5,-2.5z" fill="#be79ff" stroke-width="0.5"/><path d="M289.13424,318.06232c1.95217,-1.56174 3.51391,0.39043 3.51391,0.39043l1.80998,2.26861c3.03171,3.17505 6.28672,1.76694 10.48286,2.0163c0.52555,0.03123 1.04587,0.56896 1.53467,0.37338c0.44901,-0.17966 0.22214,-2.14442 0.10774,-2.30624c-0.73692,-1.04242 -3.12889,-1.50108 -4.02489,-1.66127c-1.23891,-0.2215 -2.49277,-0.43211 -3.75131,-0.42801c-1.01426,0.0033 -2.00623,0.3 -3.00934,0.45001c0,0 -2.47487,0.35355 -2.82842,-2.12132c-0.35355,-2.47487 2.12132,-2.82842 2.12132,-2.82842c2.78521,-0.3825 5.67406,-0.51305 8.43403,0.022c5.5584,1.07756 12.72668,7.85305 5.57953,13.12651c-1.12119,0.82725 -2.7712,0.31504 -4.16333,0.37337c-5.82905,0.24422 -9.89981,0.50637 -14.2085,-3.6817l-1.98868,-2.47974c0,0 -1.56174,-1.95217 0.39043,-3.51391z" fill="#be79ff" stroke-width="0.5"/><path d="M323.93188,326.82126c0.79057,2.37171 -1.58114,3.16228 -1.58114,3.16228l-1.12744,0.35414c-4.51314,2.17191 -9.51105,4.29658 -14.53313,4.97615c-4.77024,0.6455 -10.23804,0.04391 -15.05317,0.00097c-2.7971,-0.02495 -7.679,-0.0177 -10.42068,-0.4969c-7.0275,-1.22829 -13.87808,-6.25104 -20.90971,-6.13057c0,0 -2.5,0 -2.5,-2.5c0,-2.5 2.5,-2.5 2.5,-2.5c7.62111,0.09701 14.30584,4.89576 21.82533,6.21512c2.2628,0.39703 7.31906,0.39339 9.54885,0.41255c4.5869,0.03941 9.81386,0.65338 14.36002,0.04118c4.47958,-0.60323 8.99178,-2.57192 13.00723,-4.52053l1.72156,-0.59553c0,0 2.3717,-0.79057 3.16227,1.58114z" fill="#be79ff" stroke-width="0.5"/><path d="M308.5064,306.8282c-0.62086,-0.07216 -2.26674,-0.45475 -2.26674,-2.48323c0,-2.5 2.5,-2.5 2.5,-2.5l1.76108,0.35627c6.7606,4.11154 16.0333,7.0595 20.74388,14.06286c1.6529,2.45741 2.72118,6.80451 3.69662,9.47717c0.19182,27.76713 -43.04221,25.29078 -62.62078,22.86696c-17.73626,-2.62081 -34.84044,-34.583 -11.85474,-42.36146c0,0 2.37171,-0.79057 3.16228,1.58114c0.79057,2.37171 -1.58114,3.16228 -1.58114,3.16228c-17.40359,5.69567 -1.96663,30.89541 10.93728,32.66228c15.01082,1.89612 56.839,4.38324 57.03734,-17.01908c-0.84417,-2.17696 -1.63678,-5.6176 -2.95105,-7.61684c-0.48164,-0.73266 -3.38416,-2.92473 -3.76758,-3.23844c-4.67915,-3.8284 -9.70667,-5.99116 -14.79643,-8.94991z" fill="#be79ff" stroke-width="0.5"/><path d="M306.44099,268.15694c2,1.5 0.5,3.5 0.5,3.5l-1.39017,1.85243c-2.49028,3.48236 -5.13899,6.86044 -8.0582,10.00285c-1.50351,1.61847 -4.8139,5.43731 -7.54663,5.75592c-0.51709,0.06029 -7.33404,-2.54564 -7.44615,-2.58033c-3.19408,-0.98833 -6.58113,-1.27944 -9.75829,-2.32089c-4.7254,-1.54895 -9.41623,-4.17788 -13.94428,-6.23606c0,0 -2.27592,-1.03451 -1.24141,-3.31042c1.03451,-2.27592 3.31042,-1.24141 3.31042,-1.24141c4.35828,1.98106 8.87999,4.54887 13.43063,6.03596c3.15759,1.03186 6.52298,1.3191 9.69643,2.30108c1.45141,0.44912 2.87884,0.98113 4.27639,1.57707c0.46055,0.19639 0.77681,0.81519 1.2769,0.79096c0.45739,-0.02216 0.70737,-0.58339 1.03532,-0.903c1.09696,-1.06908 2.2019,-2.13249 3.23745,-3.26115c2.76382,-3.01232 5.29268,-6.19463 7.66275,-9.51678l1.45884,-1.94624c0,0 1.5,-2 3.5,-0.5z" fill="#be79ff" stroke-width="0.5"/><path d="M109.46375,293.13985c-2,-1.5 -0.5,-3.5 -0.5,-3.5l1.25139,-1.63529c2.77542,-4.87984 5.84503,-11.2164 10.38702,-15.21888c-8.84288,2.89631 -17.4107,6.77505 -26.02245,10.2663c-5.48685,2.2244 -35.72295,14.43429 -39.05469,9.16231c-0.99124,-1.56849 4.36487,-9.94041 11.14457,-18.42918c-6.19904,4.24192 -12.67006,7.99486 -19.41491,10.67727c-1.12112,0.44586 -2.29946,0.70027 -3.50081,0.84332l-4.81352,1.13259c-0.20011,0.05161 -0.40993,0.07906 -0.62616,0.07906c-1.38071,0 -2.5,-1.11929 -2.5,-2.5c0,-0.50054 0.1471,-0.96673 0.40043,-1.35768l2.30632,-3.69011c1.87968,-3.77389 3.50185,-7.98183 5.77533,-11.51857c4.24212,-6.59924 10.54651,-12.91823 15.98315,-18.54591c4.83545,-5.00219 15.01015,-16.99112 22.99781,-23.37749c-2.69849,0.99926 -5.55329,1.84864 -7.56576,2.73397c-8.37056,3.68242 -15.66299,6.8062 -24.1193,7.62625l0.07554,0.57913l-4.91778,0.64145c-0.11869,0.01729 -0.24009,0.02625 -0.36357,0.02625c-1.38071,0 -2.5,-1.11929 -2.5,-2.5c0,-0.48518 0.13821,-0.93808 0.37741,-1.32147l1.40336,-2.33893l0.02527,0.01516l0.02777,-0.09968c0.63284,-0.88711 1.26567,-1.77423 1.89851,-2.66134c12.66007,-17.67936 30.61146,-32.78482 46.7536,-47.23261c2.87587,-2.57401 7.55007,-8.26745 12.07491,-12.33121c-20.3481,8.42383 -40.80666,16.54355 -61.43921,24.25567c-2.08669,0.13186 -10.91194,0.97328 -11.81967,-0.61881c-2.62828,-4.60981 10.67638,-15.39279 13.41346,-17.91913c3.43689,-3.17227 11.85497,-10.15839 21.2559,-17.14003c-5.11879,2.05268 -10.2795,3.964 -15.47233,5.69494c-7.25456,2.41819 -14.75975,5.77974 -22.52894,6.01131l-4.90251,0.7263c-0.13336,0.022 -0.27028,0.03344 -0.40988,0.03344c-1.38071,0 -2.5,-1.11929 -2.5,-2.5c0,-0.49552 0.14417,-0.95737 0.39284,-1.34589l1.73809,-2.81809c12.35746,-20.01283 30.45712,-34.80879 48.40288,-49.61419c0.21339,-0.17605 0.42678,-0.3521 0.64017,-0.52815c-0.01281,0.00658 -0.02562,0.01317 -0.03842,0.01976c-6.66084,3.42807 -12.98601,8.62117 -20.25609,10.77645l-4.4915,2.073c-0.33092,0.16166 -0.70284,0.25239 -1.09594,0.25239c-1.38071,0 -2.5,-1.11929 -2.5,-2.5c0,-0.51129 0.15349,-0.98673 0.41689,-1.38276l1.54988,-2.41092c7.90987,-12.29237 18.12872,-22.67533 27.68776,-33.66408c1.30105,-1.49564 2.57713,-3.01357 3.82801,-4.55187c-8.31082,3.59049 -16.6363,7.14499 -25.03391,10.53026c-6.35277,2.56095 -12.47489,5.29752 -19.15666,6.84982c0,0 -2.43598,0.56215 -2.99813,-1.87383c-0.56215,-2.43598 1.87383,-2.99813 1.87383,-2.99813c6.42023,-1.47084 12.31001,-4.15564 18.41154,-6.61524c10.7141,-4.31899 21.29652,-8.94178 31.91487,-13.48872l3.41526,-2.30552c0.40452,-0.28152 0.89617,-0.44656 1.42636,-0.44656c1.38071,0 2.5,1.11929 2.5,2.5c0,0.69036 -0.27982,1.31536 -0.73223,1.76777l-2.37417,2.37417l-0.28516,-0.28516c-3.41631,5.65525 -7.83695,10.46775 -12.29813,15.59699c-7.02289,8.07456 -14.35229,15.75172 -20.60622,24.38906c1.77639,-0.79825 3.65307,-1.6378 4.15622,-1.90325c4.19655,-2.214 8.12462,-4.94917 12.34317,-7.12121c5.81453,-2.99377 11.80387,-5.24235 17.36251,-8.72416l3.32466,-2.07792c0.39096,-0.25333 0.85714,-0.40043 1.35768,-0.40043c1.38071,0 2.5,1.11929 2.5,2.5c0,0.76522 -0.3438,1.45014 -0.88536,1.90872l-3.3115,2.83843l-0.00294,-0.00343c-0.00499,0.00622 -0.01,0.01244 -0.015,0.01866c-0.00046,0.00057 -7.71919,6.36848 -7.73181,6.37889c-5.03776,4.15616 -10.08703,8.29679 -15.07265,12.51543c-14.61711,12.36844 -28.85633,24.72933 -39.19752,40.99586c2.3899,-0.89358 4.75613,-0.81135 7.58055,-1.55711c6.32492,-1.67004 12.55521,-4.19703 18.76378,-6.26464c15.48518,-5.15694 30.81058,-12.68282 45.3151,-20.13736l0.01022,-0.00065l-0.00182,-0.00361l2.74923,-1.38689c0.34922,-0.1854 0.74764,-0.29042 1.17058,-0.29042c1.38071,0 2.5,1.11929 2.5,2.5c0,0.92661 -0.50412,1.73548 -1.25305,2.16731l-4.24817,2.5489l-0.17982,-0.2997c-0.24702,0.12606 -0.49419,0.25199 -0.74154,0.37777c-12.10052,10.37167 -28.12574,17.09561 -40.39058,27.27339c-4.77439,3.96195 -9.57327,7.78307 -13.95983,12.172c-2.2274,2.22861 -4.28049,4.6493 -6.6986,6.66938c-0.71515,0.59743 -3.29882,1.45123 -2.36763,1.48647c2.23919,0.08472 4.27628,-1.54954 6.51438,-1.65925c22.28895,-8.63197 44.52599,-17.30301 66.59588,-26.48683l0.09278,-0.0103l-0.00672,-0.02015l4.21814,-1.40605c0.2642,-0.09499 0.54902,-0.14675 0.84593,-0.14675c1.38071,0 2.5,1.11929 2.5,2.5c0,0.36939 -0.08011,0.72006 -0.22391,1.0356l-1.40273,3.27304l-0.03657,-0.01567c-0.05825,0.14595 -0.12175,0.29017 -0.19112,0.43245c-3.1557,6.47192 -13.324,12.76834 -18.6509,17.5361c-15.84278,14.17986 -33.63579,29.02881 -46.01952,46.41315c-0.20162,0.28188 -0.40324,0.56376 -0.60486,0.84564l0.01135,0.08702c9.06153,-3.81506 38.02137,-14.83216 38.72915,-14.64212c1.87889,0.50448 4.50184,1.62118 4.62261,3.56287c0.17862,2.87174 -26.57848,27.26179 -30.57124,31.39223c-5.22196,5.39847 -11.33667,11.47835 -15.39791,17.81416c-1.95721,3.05339 -3.39647,6.62548 -4.97726,9.95311c0.67075,-0.12308 1.38858,-0.12034 2.01885,-0.37381c4.08902,-1.64446 8.62755,-4.12642 12.38855,-6.43856c9.46889,-5.82115 18.44411,-12.96593 27.01535,-20.0124l0.14785,-0.04321l-0.02586,-0.04029l4.12058,-2.6449c0.39576,-0.26285 0.87069,-0.41599 1.38139,-0.41599c1.38071,0 2.5,1.11929 2.5,2.5c0,0.69036 -0.27982,1.31536 -0.73223,1.76777l0,0l-2.849,2.849l-0.48802,-0.48802c-5.48065,7.42105 -13.26979,13.38479 -18.94056,20.83171c-0.82225,1.07979 -6.36659,8.52118 -8.82854,11.35637c5.67837,-2.46568 12.26146,-3.68258 18.15876,-5.54357c4.5601,-1.43901 8.90437,-3.23713 13.33489,-5.03329c9.88716,-4.00831 19.71385,-8.48845 29.95132,-11.50553l3.21973,-0.94698c0.23996,-0.0766 0.49567,-0.11795 0.76104,-0.11795c1.38071,0 2.5,1.11929 2.5,2.5c0,0.32934 -0.06368,0.64381 -0.17941,0.93176l-1.40427,3.74472l-0.03462,-0.01298c-0.06168,0.16487 -0.1295,0.32783 -0.20427,0.48864c-0.574,1.23463 -4.6148,4.40854 -5.89931,5.96862c-2.77407,3.36917 -4.70587,7.23797 -6.85002,11.0079l-1.59761,2.16338c0,0 -1.5,2 -3.5,0.5z" fill="#be79ff" stroke-width="0.5"/><path d="M615.57758,327.84612c0,2.5 -2.5,2.5 -2.5,2.5h-4.5045c-3.59148,0 -8.1011,-0.72342 -11.63115,-0.02918c-4.61652,0.9079 -9.36333,2.98744 -13.85282,4.40518c-9.48787,2.99617 -18.80769,5.57198 -28.54349,7.63588c-2.42975,-0.44316 -8.92298,-1.44945 -9.82038,-2.98998c-1.80348,-3.09593 11.17384,-17.37406 13.24901,-19.76188c8.67724,-9.98457 16.20979,-20.95552 24.61655,-31.10092c-0.95239,0.59884 -1.91037,1.18477 -2.87572,1.75357c-4.39529,2.5898 -9.27842,4.64502 -13.84909,6.91022c-6.45951,1.46608 -25.01985,8.69301 -30.05876,1.84321c-1.91982,-2.60976 3.66197,-11.8279 4.5859,-14.31935c1.70591,-4.60014 5.37771,-10.31964 10.02547,-15.9726c-1.24091,0.62928 -2.4952,1.22855 -3.76412,1.79345c-4.15041,1.8477 -11.9389,7.88593 -15.49327,1.16381c-0.55764,-1.05463 2.87671,-8.9462 3.11038,-9.52718c5.78404,-9.30112 9.58567,-19.38469 15.11456,-28.70636c5.65308,-9.53105 14.29151,-17.68657 20.48728,-26.98024c2.14871,-3.22306 4.54429,-8.16275 7.39826,-12.39719c-11.83503,6.5685 -24.46795,11.55793 -35.30459,19.99565c-2.68332,2.08931 -7.77264,7.57686 -12.05883,2.54579c-1.35001,-1.58462 0.77074,-4.10149 1.39543,-6.08726c0.47997,-1.5257 1.39308,-2.88861 1.90495,-4.40391c0.7504,-2.22143 1.68442,-7.71191 2.46501,-9.81041c1.06112,-2.85266 2.89716,-5.35363 4.35461,-8.02561c11.60632,-21.27826 24.93962,-42.03479 40.19226,-60.88362c0.40165,-0.49635 0.81308,-1.04066 1.23415,-1.62035c-0.33728,0.26376 -0.6745,0.53019 -1.01138,0.79995c-3.87964,3.10658 -7.61028,6.43125 -11.40688,9.63907c-13.60313,11.49361 -27.05475,23.02484 -42.22809,32.36228c-3.11084,1.91436 -14.75098,10.46626 -19.08628,6.39678c-3.81407,-3.58021 11.52748,-24.2672 14.06132,-28.20221c8.47446,-13.13934 18.96703,-25.29907 29.35397,-37.34567c-14.32697,14.28728 -29.1199,27.50821 -36.43438,28.61962c-0.24235,0.03682 -0.48378,0.05148 -0.72446,0.0479v0.05937l-3.003,0c-1.38071,0 -2.5,-1.11929 -2.5,-2.5c0,-0.69036 0.27982,-1.31536 0.73223,-1.76777l2.68768,-2.68768c4.77833,-15.12196 12.83389,-28.89282 21.31358,-42.21798c3.42141,-5.37648 6.83366,-10.76344 10.16909,-16.1938c0.22346,-0.36382 0.437,-0.75499 0.655,-1.15311c-7.23038,7.74724 -29.89961,32.78663 -34.82535,28.25057c-5.06117,-4.66077 20.06383,-39.96404 23.6444,-45.695c1.74529,-2.79346 3.62726,-5.50589 5.23824,-8.3789c0.4435,-0.79093 0.98372,-2.1083 1.56844,-3.20389c-4.02366,1.62417 -11.80582,3.74047 -12.67838,3.98768c-5.46683,1.54885 -16.16488,10.46171 -22.19671,6.82055c-1.53667,-0.92762 3.01073,-19.6751 3.82007,-22.15484c0,0 0.79057,-2.37171 3.16228,-1.58114c2.37171,0.79057 1.58114,3.16228 1.58114,3.16228c-0.96009,2.81053 -0.84723,5.8826 -1.44009,8.79282c-0.51537,2.52985 -1.46208,4.96604 -2.51163,7.32835c7.16524,-3.97304 34.10883,-14.22472 36.63214,-10.87843c2.54625,3.37672 -7.24327,16.04695 -8.93508,18.75482c-1.71315,2.74202 -18.7946,30.61579 -23.27723,37.81872c0.71084,-0.67949 1.50571,-1.40057 1.93095,-1.84409c2.30691,-2.40609 4.71405,-4.71405 7.07107,-7.07107c6.56837,-6.56837 13.0939,-13.18324 19.72942,-19.68377c1.58381,-0.77616 7.99192,-4.90448 9.64328,-0.70514c0.88889,2.26041 -1.60241,4.59278 -2.60425,6.80545c-1.84811,4.08178 -4.88637,7.9478 -7.25575,11.73878c-9.21242,14.73981 -18.1521,29.1082 -24.43946,45.23053c4.95992,-3.97095 12.45042,-8.39255 14.75143,-10.1687c17.79328,-13.73466 32.22738,-31.64884 48.02673,-47.51596l2.10847,-2.11751c0.45273,-0.45483 1.07942,-0.73635 1.77187,-0.73635c1.38071,0 2.5,1.11929 2.5,2.5c0,0.41989 -0.10352,0.81561 -0.28642,1.16302l-2.21358,4.42715l-0.9649,-0.48245c-10.17405,22.34793 -44.98569,53.6639 -57.59695,73.28258c-3.61577,5.61522 -7.18115,11.26575 -10.91209,16.80559c-0.83682,1.24255 -1.6332,2.51466 -2.53311,3.71231c-0.38628,0.51409 -1.94927,1.52259 -1.31609,1.41045c13.99234,-2.47814 43.16728,-29.36557 54.58351,-39.01141c3.83014,-3.23617 7.5947,-6.58874 11.50861,-9.72276c5.16711,-4.13752 10.55257,-7.41559 14.77147,-12.55953l2.53148,-3.06428c0.4584,-0.5633 1.15722,-0.92314 1.94008,-0.92314c1.38071,0 2.5,1.11929 2.5,2.5c0,0.46716 -0.12813,0.90439 -0.35117,1.27847l-2.45891,4.3031l-0.69647,-0.39798c-4.13412,9.19124 -11.31596,15.91963 -17.67885,24.42997c-12.37625,16.5532 -23.56759,34.30231 -33.45793,52.4346c-1.35622,2.4864 -3.10561,4.79251 -4.08637,7.44951c-1.75098,4.74361 -1.65475,9.95016 -4.43524,14.37341c-0.40194,0.63941 -1.42693,0.71097 -1.81138,1.36104c-0.31715,0.53627 1.09694,-0.60209 1.58874,-0.98458c1.0985,-0.85435 2.09671,-1.83092 3.17012,-2.71658c3.90542,-3.22229 8.12318,-5.6208 12.45359,-8.21905c7.39711,-4.43826 15.62569,-7.10821 23.02826,-11.41296c2.82347,-1.64191 5.43072,-3.63025 8.14833,-5.442l4.13181,-2.75454c0.40239,-0.27681 0.88987,-0.43883 1.41519,-0.43883c1.38071,0 2.5,1.11929 2.5,2.5c0,0.56071 -0.18459,1.07831 -0.49632,1.49533l-2.93008,4.01754l-0.36458,-0.26589c-8.66396,16.99275 -23.4501,30.09265 -33.08392,46.42461c-5.44329,9.22787 -9.14872,19.17526 -14.91547,28.3507c-0.5884,1.47988 -1.02199,3.03113 -1.76519,4.43964c-0.23981,0.45449 -0.92584,0.57681 -1.13044,1.0482c-0.09704,0.22358 0.50123,-0.00823 0.72297,-0.1094c1.19494,-0.54517 2.31141,-1.25051 3.49694,-1.81587c2.89221,-1.37925 5.95951,-2.39051 8.78674,-3.89848c8.58935,-4.58135 16.59008,-10.59025 24.38787,-16.44976l-0.25999,-0.43332l4.25223,-2.55134c0.38339,-0.2392 0.83629,-0.37741 1.32147,-0.37741c1.38071,0 2.5,1.11929 2.5,2.5c0,0.82831 -0.40283,1.56254 -1.02328,2.01746l-1.98273,1.48705c-1.57281,1.17953 -3.15257,2.36835 -4.74285,3.55398c-6.80443,8.94088 -21.82325,20.67445 -26.73071,28.37285c-1.7203,2.69867 -1.97465,6.09818 -3.23886,9.03826c-0.81997,1.90694 -4.75796,4.10153 -3.12682,5.38534c1.80959,1.42426 20.96993,-3.50729 23.99529,-4.1628c4.27993,-2.16135 8.85529,-4.07362 12.98373,-6.50619c6.24578,-3.68015 11.88542,-8.23658 18.18645,-11.86615l2.09917,-3.14875c0.44514,-0.68925 1.2201,-1.14551 2.10163,-1.14551c1.38071,0 2.5,1.11929 2.5,2.5c0,0.41989 -0.10352,0.81561 -0.28642,1.16302l-1.47901,2.95802l-0.3034,-0.1517l-0.09837,0.73229c-0.26795,0.16904 -0.53549,0.3391 -0.80266,0.5101l-0.22352,0.33528l-0.05785,-0.03857c-0.02239,0.07779 -0.0502,0.15476 -0.08404,0.23081c-1.55156,3.48686 -6.8065,6.38205 -9.27112,9.39246c-8.43713,10.30557 -15.79681,21.44123 -24.40464,31.66025c-3.22745,3.83156 -6.57321,7.57418 -9.86416,11.35143c-1.58944,1.82431 -2.54141,4.13949 -4.10161,5.98887c-0.43272,0.51293 -2.4226,0.69995 -1.78947,0.92242c1.63363,0.57404 3.5058,-0.36921 5.19463,0.01303c9.19073,-2.15864 18.08293,-4.55941 27.09102,-7.40407c4.72206,-1.49118 9.73475,-3.65958 14.59676,-4.5789c3.81754,-0.72183 8.51891,-0.02918 12.39287,-0.02918h4.5045c0,0 2.5,0 2.5,2.5z" fill="#be79ff" stroke-width="0.5"/></g></g></svg>