<svg version="1.1" xmlns="http://www.w3.org/2000/svg" xmlns:xlink="http://www.w3.org/1999/xlink" width="538.48128" height="286.52114" viewBox="0,0,538.48128,286.52114"><g transform="translate(-3.97289,-6.56756)"><g fill="#b668ff" stroke="none" stroke-width="0.5" stroke-miterlimit="10"><path d="M27.83536,7.32541c2.08012,1.38675 0.69337,3.46688 0.69337,3.46688l-0.44938,0.63927c-2.12361,4.23872 -4.50558,8.41533 -6.92267,12.49565c-0.88655,1.49658 -1.47194,3.22002 -2.66296,4.48777c-0.05001,0.05324 -0.10085,0.10554 -0.15243,0.15695l0.01758,0.01506l-1.80541,2.10631c-0.45858,0.54156 -1.1435,0.88536 -1.90872,0.88536c-1.21151,0 -2.22174,-0.86176 -2.45115,-2.00574l-0.55365,-2.49142c-2.56687,-5.70165 -5.43771,-11.2597 -7.52459,-17.14657c0,0 -0.83204,-2.35747 1.52543,-3.18952c2.35748,-0.83205 3.18953,1.52543 3.18953,1.52543c1.84652,5.25679 4.37726,10.24205 6.69482,15.3206c0.40736,-0.77911 0.93753,-1.54711 1.32693,-2.20786c2.34862,-3.98524 4.69077,-8.05033 6.75517,-12.18806l0.76127,-1.17671c0,0 1.38675,-2.08012 3.46688,-0.69337z"/><path d="M35.19375,21.98072c-1.61429,0.13658 -3.07907,0.51633 -3.24609,2.62566c-0.06624,0.83662 0.07281,5.38472 1.95011,5.30844c0.5329,-0.02165 0.90382,-0.5804 1.40174,-0.77153c3.42921,-1.31633 3.11683,-2.10991 1.50349,-5.60191l-1.52893,-1.4722c0,0 -0.03084,-0.03085 -0.08031,-0.08846zM38.80283,18.52704c0.00449,0.00433 0.00677,0.00661 0.00677,0.00661l2.10303,2.15976c1.36656,3.03517 2.97445,5.01264 1.83924,8.54287c-1.66723,5.18474 -9.89926,7.21795 -13.63935,3.31077c-2.87762,-3.00617 -2.98131,-9.8877 -0.30266,-12.99005c2.18808,-2.53418 4.51313,-2.32246 7.37789,-2.65116c0,0 2.05228,-0.20523 2.61508,1.6212z"/><path d="M48.87229,6.61816c2.48471,-0.27608 2.76078,2.20863 2.76078,2.20863l0.31413,2.8618c0.00964,7.20911 0.00383,14.41825 0.00383,21.62736c0,0 0,2.5 -2.5,2.5c-2.5,0 -2.5,-2.5 -2.5,-2.5c0,-7.11694 -0.00671,-14.23392 0.00382,-21.35085l-0.2912,-2.58614c0,0 -0.27608,-2.48471 2.20863,-2.76079z"/><path d="M70.03315,14.2441c2.42535,0.60634 1.81902,3.03169 1.81902,3.03169l-0.44349,1.61966c-1.65105,3.71275 -4.25403,12.8282 -9.34092,12.95401c-1.76091,0.04355 -2.26192,-2.72473 -3.13127,-4.2567c-0.80323,-1.41546 -1.7814,-5.3605 -2.21215,-6.93622c0,0 -0.65779,-2.41191 1.75412,-3.06971c2.41191,-0.6578 3.0697,1.75412 3.0697,1.75412c0.43751,1.60825 1.2267,3.1351 1.69115,4.73008c0.87719,-2.5506 2.83489,-5.48308 3.6003,-7.20628l0.16183,-0.80165c0,0 0.60634,-2.42536 3.03169,-1.81902z"/><path d="M90.38929,29.98665c0,2.5 -2.5,2.5 -2.5,2.5l-1.3959,-0.12829c-3.16437,-1.07753 -7.47875,-0.57061 -10.07621,-3.04456c-0.95189,-0.90662 -1.24641,-2.34533 -1.56034,-3.62185c-1.17883,-4.79349 -0.63728,-12.11818 5.10118,-13.55041c1.74173,-0.43471 3.65904,-0.78475 5.37871,-0.26965c3.61629,1.0832 5.58142,6.23607 4.62031,9.52664c-1.1902,4.07486 -6.55738,5.1476 -9.84438,3.86295c-0.26114,-0.10206 -0.49027,-0.24912 -0.69714,-0.42751c0.09154,0.38435 0.26633,0.72293 0.57541,0.98294c1.57767,1.32723 6.05639,1.13418 8.0836,1.79805l-0.18524,-0.12829c0,0 2.5,0 2.5,2.5zM79.88133,18.09853c0.93913,0.21323 1.53338,1.00555 1.53338,1.00555c0.31134,0.56174 0.38793,1.34718 0.93402,1.68524c2.77148,1.71575 4.08458,-3.86334 1.43452,-4.1649c-0.83231,-0.09471 -1.67074,0.16352 -2.49054,0.33568c-0.41688,0.08755 -0.94275,0.09985 -1.2,0.43937c-0.07483,0.09876 -0.14597,0.35697 -0.21137,0.69907z"/><path d="M106.10848,17.58487c-0.31009,2.48069 -2.79078,2.17061 -2.79078,2.17061l-1.23341,-0.44254c-0.57217,0.16748 -1.22725,0.16177 -1.7165,0.50245c-0.64434,0.44867 -0.8157,1.05177 -0.79159,1.71361c0.21744,1.23683 0.47409,2.48395 0.76716,3.81056l-0.03986,0.14021l0.05838,-0.00649l0.29865,2.68787c0.01274,0.10227 0.0193,0.20646 0.0193,0.31218c0,1.38071 -1.11929,2.5 -2.5,2.5c-1.09231,0 -2.02101,-0.70054 -2.36132,-1.67684l-0.8875,-2.36666l0.1058,-0.03967c-0.07927,-0.12769 -0.1544,-0.25826 -0.22486,-0.39207c-0.49234,-0.93506 -0.04883,-2.11331 -0.04012,-3.17003c0.00072,-0.08675 0.00175,-0.17258 0.00312,-0.2575c-0.433,-2.33388 -0.73197,-4.59729 -0.90557,-7.14279c0,0 -0.1663,-2.49446 2.32817,-2.66076c1.99675,-0.13312 2.50171,1.43867 2.62373,2.0712c0.45296,-0.24045 0.95388,-0.47434 1.50738,-0.7069l3.6092,0.16279c0,0 2.48069,0.31009 2.17061,2.79078z"/><path d="M141.18063,254.99171c0.60634,2.42536 -1.81902,3.0317 -1.81902,3.0317l-4.30088,1.05591c-21.99477,0.07765 -47.71004,2.85998 -66.78634,-10.46707c-8.16886,-5.70692 -12.87074,-15.39199 -17.60917,-23.77666c-6.13106,-13.47132 -9.68147,-28.67724 -7.37767,-43.638c1.50055,-9.74455 6.19143,-21.54848 13.39871,-28.24995c-2.47364,-0.64317 -4.7743,-1.5205 -6.7653,-3.65098c-7.37446,-7.89105 0.93577,-21.50545 4.70768,-29.01295c16.49485,-22.08196 51.13515,-33.06824 78.12663,-33.18567c0,0 2.5,0 2.5,2.5c0,2.5 -2.5,2.5 -2.5,2.5c-24.0505,-0.12193 -59.12026,11.22995 -73.87337,30.81433c-2.20379,4.43099 -4.19581,8.3444 -5.53515,13.118c-0.85401,3.04381 -2.51329,7.09795 0.24283,9.86905c2.08815,2.0995 5.26816,2.39482 7.91014,3.0581c0.23328,0.05857 0.46533,0.12439 0.69668,0.19416c3.68769,-1.71947 7.83447,-2.11641 12.38241,-0.5754l0.46255,-1.15638l4.58831,1.83533c0.94948,0.35452 1.62559,1.26971 1.62559,2.34282c0,1.37929 -1.11698,2.49769 -2.49572,2.5l-2.96804,0.00582c-0.83813,0.08432 -9.92984,1.00665 -10.22908,0.98482c-1.00349,-0.0732 -1.97916,-0.32572 -2.94956,-0.61066c-0.56089,0.24634 -1.11058,0.5319 -1.6462,0.86679c-18.57644,11.61477 -13.23349,50.94751 -5.84529,67.22303c4.33744,7.65769 8.60545,16.82917 16.11477,22.01601c18.03994,12.46056 42.50875,9.45032 63.21366,9.53293l3.69912,-0.94409c0,0 2.42536,-0.60634 3.0317,1.81902z"/><path d="M220.52304,284.83028c1.76777,1.76777 0,3.53553 0,3.53553l-1.26777,1.23223c-1.91529,1.16263 -3.50882,3.36267 -5.74586,3.48788c-1.53717,0.08604 -2.47426,-1.85588 -3.53871,-2.96819c-4.49802,-4.70024 -6.2288,-11.13039 -8.65421,-17.02191c-6.24701,-15.17517 -12.41917,-30.30295 -18.95499,-45.28413c-0.09437,0.23441 -0.1879,0.46884 -0.28046,0.70331c-1.73885,4.40473 -3.12073,9.18447 -5.22542,13.42055c-2.21739,4.46291 -5.35798,8.72626 -7.9712,12.97273c0,0 -1.31024,2.12915 -3.43939,0.8189c-2.12915,-1.31024 -0.8189,-3.43939 -0.8189,-3.43939c2.53391,-4.11761 5.60133,-8.24894 7.75172,-12.57702c2.04109,-4.10807 3.36536,-8.75804 5.05166,-13.0297c0.68124,-1.72569 1.41777,-3.44955 2.15294,-5.17827c-4.15275,-9.33298 -8.47151,-18.60329 -13.06324,-27.78674c0,0 -1.11803,-2.23607 1.11803,-3.3541c2.23607,-1.11803 3.3541,1.11803 3.3541,1.11803c3.90561,7.81122 7.61499,15.68507 11.19317,23.60675c0.2689,-0.72876 0.52548,-1.45979 0.76566,-2.19356c3.06867,-9.37509 4.97395,-19.32969 7.37876,-28.8976l-0.07366,-0.40188c0,0 0.00433,-2.5 2.50433,-2.49566c2.5,0.00433 2.49566,2.50433 2.49566,2.50433l-0.07715,1.61201c-2.43346,9.68189 -4.37065,19.74696 -7.47602,29.23421c-0.77117,2.35601 -1.70536,4.68424 -2.67533,7.00004c7.26622,16.43717 14.04543,33.06207 20.91325,49.74378c1.56998,3.81361 2.77607,8.63641 4.96893,12.13611c0.81,1.29272 2.04945,2.27751 2.87785,3.55852c0.22477,0.34757 -0.15257,1.41471 0.21434,1.22312c0.99728,-0.52076 1.50276,-1.67475 2.25414,-2.51212l0.73223,-0.76777c0,0 1.76777,-1.76777 3.53553,0z"/><path d="M281.20672,146.10776c0.49029,2.45145 -1.96116,2.94174 -1.96116,2.94174l-0.0971,0.01942c-7.41947,1.46601 -14.83936,1.02913 -22.39319,1.02913c-4.17958,0 -8.33532,0.00379 -12.48352,0.06662c2.19572,12.40566 4.9571,24.77791 7.17756,37.14901c4.13508,23.03829 15.86285,63.85019 8.67767,86.07494c0,0 -0.79057,2.37171 -3.16228,1.58114c-2.37171,-0.79057 -1.58114,-3.16228 -1.58114,-3.16228c6.25803,-18.0674 -5.30841,-63.84749 -8.85561,-83.61048c-2.2668,-12.62934 -5.08379,-25.25789 -7.30553,-37.92291c-4.74,0.13711 -9.47881,0.38078 -14.24081,0.81369c0,0 -2.48973,0.22634 -2.71607,-2.26339c-0.22634,-2.48973 2.26339,-2.71607 2.26339,-2.71607c4.63229,-0.42112 9.24312,-0.66688 13.8541,-0.81022c-0.28952,-1.79337 -0.56412,-3.58757 -0.82056,-5.3827l-0.30069,-4.13703c0,0 -0.18032,-2.49349 2.31317,-2.6738c2.49349,-0.18032 2.6738,2.31317 2.6738,2.31317l0.2851,3.96347c0.27622,1.93349 0.57389,3.86595 0.88884,5.79749c4.43042,-0.07529 8.86823,-0.08065 13.33258,-0.08065c7.19665,0 14.3519,0.49891 21.41261,-0.93203l0.0971,-0.01942c0,0 2.45145,-0.49029 2.94174,1.96116z"/><path d="M372.8354,244.2113c1.38675,2.08013 -0.69338,3.46688 -0.69338,3.46688l-5.01979,2.3384c-3.70773,-4.9756 -7.80058,-11.40911 -9.81244,-17.38108c-0.17863,0.48071 -0.35933,0.96257 -0.54208,1.44582c-3.77784,2.94422 -8.77373,8.05686 -13.22187,9.88844c-11.11695,4.57757 -19.25515,-7.05281 -19.29057,-16.37171c-0.04481,-11.789 3.94005,-22.05786 12.39302,-28.50012l-2.0023,-0.00227c-4.70005,-0.2108 -9.18418,-0.87247 -13.89071,-0.99761c-0.6838,-0.01818 -1.40355,-0.43248 -2.04329,-0.1903c-0.55534,0.21023 -0.70995,0.95549 -1.11787,1.387c-1.14494,1.21115 -2.35115,2.36292 -3.53553,3.53553c-8.13764,8.05675 -8.95389,20.8649 -11.66527,31.52339c-0.13819,0.54323 -0.31191,1.08017 -0.48284,1.61753c0.21617,2.53162 0.34242,5.07276 0.34481,7.62684v4c0,1.38071 -1.11929,2.5 -2.5,2.5c-1.29767,0 -2.36442,-0.9887 -2.48804,-2.2539l-0.54883,-4.93944c-0.3988,-1.36666 -0.59785,-2.81171 -0.4575,-4.47444c0.09727,-1.1523 0.29406,-2.31793 0.55184,-3.48951c-0.91848,-9.42893 -3.06875,-18.74088 -4.54285,-28.08909c-0.77822,-4.93519 -1.15734,-9.90759 -1.98061,-14.84263c0,0 -0.411,-2.46598 2.05499,-2.87698c2.46598,-0.411 2.87698,2.05499 2.87698,2.05499c0.82415,4.94939 1.20724,9.93699 1.98761,14.8858c0.87529,5.55079 1.9691,11.08197 2.91441,16.63045c1.35257,-6.42987 2.61675,-14.14129 6.55477,-19.49636c1.08324,-1.47303 2.55795,-2.61344 3.84499,-3.9122c2.03818,-2.05674 3.58463,-4.93708 6.27552,-6.0064c1.22709,-0.48763 2.63654,-0.16411 3.95671,-0.1903c4.82244,-0.09567 9.3184,0.79839 14.10929,1.00239l1.89071,-0.00239c0,0 2.5,0 2.5,2.5c0,0.29336 -0.03442,0.55229 -0.09519,0.78084c2.04796,-1.25518 4.31461,-2.31424 6.80462,-3.15255c0,0 2.37171,-0.79057 3.16228,1.58114c0.79057,2.37171 -1.58114,3.16228 -1.58114,3.16228c-11.19116,3.68871 -16.91495,12.0739 -18.31591,23.98332c-0.76907,6.53783 2.33929,20.99848 12.73477,16.27326c3.68371,-1.67441 7.43422,-5.73058 10.77813,-8.11156c1.21476,-3.68686 2.406,-7.27121 3.49183,-10.88195c0.01034,-0.55117 0.01855,-1.09679 0.02062,-1.63478c0.00697,-1.81539 -0.23379,-3.65144 0.04012,-5.44606c0.203,-1.33008 0.70504,-2.57309 1.36344,-3.7501l1.73512,-4.627c0.34031,-0.9763 1.269,-1.67684 2.36132,-1.67684c1.38071,0 2.5,1.11929 2.5,2.5c0,0.01184 -0.00008,0.02366 -0.00025,0.03546l-0.03878,3.18912l-0.09153,-0.00111l0.078,0.23218c-0.82086,4.14845 -1.82493,8.11218 -2.99014,12.02285c-0.09238,3.2189 -0.22905,6.77322 0.73937,9.67186c1.01606,3.04125 2.93482,5.70206 4.38926,8.55972c0.94015,1.84719 2.36666,3.82349 2.0471,5.87138l0.98021,-1.6616c0,0 2.08013,-1.38675 3.46688,0.69338z"/><path d="M417.99134,199.71608c-1.11803,2.23607 -3.3541,1.11803 -3.3541,1.11803l-0.0914,-0.86436c-2.04167,0.66006 -4.23701,0.68497 -6.34451,1.08818c-4.28967,0.82069 -7.83137,2.97905 -12.33228,3.4939c-1.61326,0.18454 -3.22655,0.36912 -4.84108,0.54224c-1.16877,0.12532 -2.49957,-0.24979 -3.5087,0.35304c-0.60579,0.36189 -0.34548,1.36837 -0.51821,2.05255c6.84597,2.1241 24.659,8.48916 27.14694,15.37392c5.80446,16.06239 -10.45907,34.68486 -26.77948,23.80459c0,0 -2.08013,-1.38675 -0.69338,-3.46688c1.38675,-2.08013 3.46688,-0.69338 3.46688,-0.69338c12.70884,8.47256 22.65449,-5.92359 19.22052,-18.19541c-0.40755,-1.45645 -23.12748,-12.33925 -26.85306,-14.62608c0.48098,-2.58442 -0.20906,-5.7084 1.44295,-7.75325c1.19905,-1.48418 9.38809,-2.14149 11.35669,-2.35989c4.40113,-0.48825 7.76623,-2.59079 12.00009,-3.44512c1.87178,-0.3777 3.85115,-0.28685 5.65549,-0.91182l3.9086,1.13564c0,0 2.23607,1.11803 1.11803,3.3541z"/><path d="M474.75527,241.09805c2.5,0 2.5,2.5 2.5,2.5l-0.03228,3.40046c-0.36534,1.13004 -0.73067,2.26008 -1.09601,3.39011c0,0 -0.79057,2.37171 -3.16228,1.58114c-2.37171,-0.79057 -1.58114,-3.16228 -1.58114,-3.16228c0.30133,-0.86996 0.60266,-1.73992 0.90399,-2.60989l-0.03228,-2.59954c0,0 0,-2.5 2.5,-2.5z"/><path d="M471.25527,203.59805c0,-1.38071 1.11929,-2.5 2.5,-2.5c1.38071,0 2.5,1.11929 2.5,2.5c0,1.38071 -1.11929,2.5 -2.5,2.5c-1.38071,0 -2.5,-1.11929 -2.5,-2.5z"/><path d="M512.25527,259.59805c0,-2.5 2.5,-2.5 2.5,-2.5l1.20943,0.12829c5.50037,-1.83346 12.48958,-2.75344 17.42596,-5.72301c2.64518,-1.59126 3.61374,-7.09668 3.86992,-9.79764c0.90542,-9.54603 -2.53472,-21.87739 -11.89439,-25.84018c-2.30301,-0.98752 -4.61047,-1.97075 -6.96417,-2.83048c-1.31211,-0.47927 -13.06463,-4.86164 -13.87666,-3.67154c-0.91388,1.33935 6.71751,45.9728 6.72991,52.23456c0,0 0,2.5 -2.5,2.5c-2.5,0 -2.5,-2.5 -2.5,-2.5c0.01695,-7.60566 -8.36233,-52.53526 -5.27009,-55.76544c5.07454,-5.30091 21.15419,3.21127 26.35061,5.43717c3.0952,1.34002 6.47374,2.96215 8.44758,5.86649c6.50991,9.57878 9.47276,25.0474 3.23423,35.43029c-2.13731,3.55717 -2.96009,3.06612 -6.40244,4.37895c-4.97214,1.89626 -10.01986,3.34109 -15.06932,5.02425l-2.79057,0.12829c0,0 -2.5,0 -2.5,-2.5z"/></g></g></svg>